<svg width="1080" height="1080" version="1.1" viewBox="0 0 1080 1080" xmlns="http://www.w3.org/2000/svg"><g transform="translate(0,312)"><rect y="-312" width="1080" height="1080" fill="#eeeeec"/><g stroke-width="1.8"><path d="m773.77 383.25c-2.239-2.8549-2.1753-2.9186.67961-.67961 2.9984 2.3515 3.9519 3.8296 2.4704 3.8296-.37377 0-1.7913-1.4175-3.15-3.15zm-266.51-14.28c1.2994-.51996 2.8519-.45603 3.45.14202.59812.59812-.46502 1.0236-2.3625.9454-2.0969-.0864-2.5234-.51289-1.0875-1.0875zm10.688-18.088c4.2075-.37895 11.092-.37895 15.3 0 4.2075.37897.765.68904-7.65.68904s-11.858-.31007-7.65-.68904zm-161.78-70.232c-2.239-2.8549-2.1753-2.9186.67961-.67961 1.7325 1.3587 3.15 2.7762 3.15 3.15 0 1.4815-1.4781.52796-3.8296-2.4704zm-71.486-157.05c0-2.475.40857-3.4875.9079-2.25.49934 1.2375.49934 3.2625 0 4.5-.49933 1.2375-.9079.225-.9079-2.25zm480.46-2.85c.0864-2.0969.51289-2.5234 1.0875-1.0875.51996 1.2994.45603 2.8519-.14202 3.45-.59812.59812-1.0236-.46502-.9454-2.3625zm0-36c.0864-2.0969.51289-2.5234 1.0875-1.0875.51996 1.2994.45603 2.8519-.14202 3.45-.59812.59812-1.0236-.46501-.9454-2.3625zm-480.6-3.6c.0864-2.0969.51289-2.5234 1.0875-1.0875.51996 1.2994.45603 2.8519-.14202 3.45-.59814.59812-1.0236-.46501-.9454-2.3625zm61.058-145.43c0-.37377 1.4175-1.7913 3.15-3.15 2.8549-2.239 2.9186-2.1753.67961.67961-2.3515 2.9984-3.8296 3.9519-3.8296 2.4704zm354.37-4.2704c-2.239-2.8549-2.1753-2.9186.67961-.67961 2.9984 2.3515 3.9519 3.8296 2.4704 3.8296-.37377 0-1.7913-1.4175-3.15-3.15zm-196.31-77.28c1.2994-.51996 2.8519-.45601 3.45.14211.59812.59813-.46502 1.0236-2.3625.9454-2.0969-.0864-2.5234-.51289-1.0875-1.0875zm41.4 0c1.2994-.51996 2.8519-.45601 3.45.14211.59812.59813-.46502 1.0236-2.3625.9454-2.0969-.0864-2.5234-.51289-1.0875-1.0875z" fill="#d0d0d0"/><path d="m269.1 402.6c1.7919-1.98 3.663-3.6 4.158-3.6s-.56608 1.62-2.358 3.6-3.663 3.6-4.158 3.6.56608-1.62 2.358-3.6zm248.85-33.718c4.2075-.37895 11.092-.37895 15.3 0 4.2075.37897.765.68904-7.65.68904s-11.858-.31007-7.65-.68904zm-156.38-82.832c-2.239-2.8549-2.1753-2.9186.67961-.67961 1.7325 1.3587 3.15 2.7762 3.15 3.15 0 1.4815-1.4781.52796-3.8296-2.4704zm331.43-4.95c3.3584-3.465 6.5112-6.3 7.0062-6.3s-1.8478 2.835-5.2062 6.3-6.5112 6.3-7.0062 6.3 1.8478-2.835 5.2062-6.3zm72.142-201.75c.0864-2.0969.51289-2.5234 1.0875-1.0875.51996 1.2994.45603 2.8519-.14202 3.45-.59812.59812-1.0236-.46501-.9454-2.3625zm-84.972-167.7c-2.239-2.8549-2.1753-2.9186.67961-.67961 1.7325 1.3587 3.15 2.7762 3.15 3.15 0 1.4815-1.4781.52796-3.8296-2.4704z" fill="#b9b9b9"/><path d="m241.2 432.52c0-.37377 1.4175-1.7913 3.15-3.15 2.8549-2.239 2.9186-2.1753.67961.67961-2.3515 2.9984-3.8296 3.9519-3.8296 2.4704zm579.37-2.4704c-2.239-2.8549-2.1753-2.9186.67961-.67961 2.9984 2.3515 3.9519 3.8296 2.4704 3.8296-.37377 0-1.7913-1.4175-3.15-3.15zm-561.37-17.55c3.3584-3.465 6.5112-6.3 7.0062-6.3s-1.8478 2.835-5.2062 6.3-6.5112 6.3-7.0062 6.3 1.8478-2.835 5.2062-6.3zm534.56-11.25-15.26-15.75 15.75 15.26c14.628 14.173 16.57 16.24 15.26 16.24-.26936 0-7.3569-7.0875-15.75-15.75zm-513.86-9.45c3.8668-3.96 7.4356-7.2 7.9306-7.2s-2.2638 3.24-6.1306 7.2-7.4356 7.2-7.9306 7.2 2.2638-3.24 6.1306-7.2zm223.76-40.83c1.2994-.51996 2.8519-.45603 3.45.14202.59812.59812-.46502 1.0236-2.3625.9454-2.0969-.0864-2.5234-.51289-1.0875-1.0875zm41.4 0c1.2994-.51996 2.8519-.45603 3.45.14202.59812.59812-.46502 1.0236-2.3625.9454-2.0969-.0864-2.5234-.51289-1.0875-1.0875zm-177.13-58.62-3.429-4.05 4.05 3.429c3.806 3.2224 4.8694 4.671 3.429 4.671-.34157 0-2.1641-1.8225-4.05-4.05zm315.17-1.35c1.7919-1.98 3.663-3.6 4.158-3.6s-.56608 1.62-2.358 3.6-3.663 3.6-4.158 3.6.56608-1.62 2.358-3.6zm-336.77-20.25-3.429-4.05 4.05 3.429c3.806 3.2224 4.8694 4.671 3.429 4.671-.34157 0-2.1641-1.8225-4.05-4.05zm353.87 3.3704c0-.37377 1.4175-1.7913 3.15-3.15 2.8549-2.239 2.9186-2.1753.67961.67961-2.3515 2.9984-3.8296 3.9519-3.8296 2.4704zm-417.25-171.22c.0367-2.97.4401-3.9671.89647-2.2158.45637 1.7514.42637 4.1814-.0668 5.4-.49307 1.2187-.86646-.21425-.82978-3.1842zm55.449-159.98c0-.37377 1.4175-1.7913 3.15-3.15 2.8549-2.239 2.9186-2.1753.67961.67961-2.3515 2.9984-3.8296 3.9519-3.8296 2.4704zm17.925-19.57c4.4136-4.7025 8.2611-8.55 8.55-8.55 1.3516 0-.0774 1.6161-8.0248 9.0752l-8.55 8.0248zm165.23-71.02c2.2275-.42903 5.8725-.42903 8.1 0 2.2275.42904.405.78006-4.05.78006s-6.2775-.35102-4.05-.78006z" fill="#a3a3a3"/><path d="m0 228v-540h1080v1080h-107.93l-.82444-4.05c-7.8071-38.352-13.595-62.957-20.106-85.471-42.146-145.73-123.07-265.92-223.94-332.56-21.129-13.96-45.393-27.92-48.527-27.92-.76783 0-6.9708 3.7664-13.784 8.3698-16.952 11.453-48.819 26.535-67.308 31.856-28.579 8.2241-49.674 10.741-80.728 9.6337-15.484-.55237-34.228-2.335-41.653-3.9613-29.745-6.5152-62.237-19.887-87.337-35.943l-10.03-6.416-12.967 7.5456c-58.01 33.757-103.31 75.002-146.35 133.25-55.271 74.797-97.695 172.96-118.49 274.17-2.6442 12.87-5.187 25.222-5.6506 27.45l-.84293 4.05h-93.531zm576 119.06c95.099-21.971 168.1-98.84 187.43-197.36 3.8177-19.459 3.3411-78.722-.7889-98.1-21.366-100.24-94.659-174.29-192.6-194.58-24.926-5.1625-63.104-5.2251-88.676-.1454-109.12 21.675-188.32 112.72-196.8 226.22-5.4049 72.335 18.826 141.55 67.742 193.52 38.569 40.972 86.512 65.525 145.39 74.461 13.23 2.0078 63.342-.56635 78.3-4.0222z" fill="#8c8c8c"/></g></g></svg>
