<svg class="gridItem__media" version="1.1" id="Layer_1" xmlns="http://www.w3.org/2000/svg" xmlns:xlink="http://www.w3.org/1999/xlink" x="0px" y="0px" width="1600" height="1200" viewBox="0 0 1600 1200" style="enable-background:new 0 0 1600 1200;" xml:space="preserve" fill="none">
<path d="M1379.94 1049.26H220.35L176.07 667.11C174.82 656.3 176.35 645.35 180.53 635.3L330.16 275.42C339.03 254.1 358.73 239.24 381.67 236.57L1116.93 151.17C1139.7 148.53 1162.13 158.31 1175.69 176.79L1413.69 501.26C1422.88 513.79 1427.18 529.25 1425.77 544.73L1379.94 1049.26Z" fill="#F4F4F4"/>
<path d="M1115.42 778.47H1113.27V773.92H1115.42V778.47ZM1115.42 768.31H1113.27V762.7H1115.42V768.31ZM1115.42 757.08H1113.27V751.47H1115.42V757.08ZM1115.42 745.86H1113.27V740.25H1115.42V745.86ZM1115.42 734.64H1113.27V729.03H1115.42V734.64ZM1115.42 723.42H1113.27V717.81H1115.42V723.42ZM1115.42 712.2H1113.27V706.59H1115.42V712.2ZM1115.42 700.97H1113.27V695.36H1115.42V700.97ZM1115.42 689.75H1113.27V684.14H1115.42V689.75ZM1115.42 678.53H1113.27V672.92H1115.42V678.53ZM1115.42 667.31H1113.27V661.7H1115.42V667.31ZM1115.42 656.08H1113.27V650.47H1115.42V656.08ZM1115.42 644.86H1113.27V639.25H1115.42V644.86ZM1115.42 633.64H1113.27V628.03H1115.42V633.64ZM1115.42 622.42H1113.27V616.81H1115.42V622.42ZM1115.42 611.2H1113.27V605.59H1115.42V611.2ZM1115.42 599.97H1113.27V594.36H1115.42V599.97ZM1115.42 588.75H1113.27V583.14H1115.42V588.75ZM1115.42 577.53H1113.27V571.92H1115.42V577.53ZM1115.42 566.31H1113.27V560.7H1115.42V566.31ZM1115.42 555.08H1113.27V549.47H1115.42V555.08ZM1115.42 543.86H1113.27V538.25H1115.42V543.86ZM1115.42 532.64H1113.27V527.03H1115.42V532.64ZM1113.18 521.57C1112.94 519.9 1112.26 518.32 1111.2 517L1112.88 515.65C1114.18 517.27 1115.02 519.21 1115.31 521.26L1113.18 521.57ZM1107.18 514.07C1106.11 513.66 1104.98 513.46 1103.82 513.46H1102.03V511.31H1103.82C1105.24 511.31 1106.63 511.56 1107.94 512.06L1107.18 514.07ZM1096.42 513.46H1090.81V511.31H1096.42V513.46ZM1085.2 513.46H1079.59V511.31H1085.2V513.46ZM1073.98 513.46H1068.37V511.31H1073.98V513.46ZM1062.75 513.46H1057.14V511.31H1062.75V513.46ZM1051.53 513.46H1045.92V511.31H1051.53V513.46ZM1040.31 513.46H1034.7V511.31H1040.31V513.46ZM1029.09 513.46H1023.48V511.31H1029.09V513.46ZM1017.87 513.46H1012.26V511.31H1017.87V513.46ZM1006.64 513.46H1001.03V511.31H1006.64V513.46ZM995.42 513.46H989.81V511.31H995.42V513.46ZM984.2 513.46H978.59V511.31H984.2V513.46ZM972.98 513.46H967.37V511.31H972.98V513.46ZM961.75 513.46H956.14V511.31H961.75V513.46ZM950.53 513.46H944.92V511.31H950.53V513.46ZM939.31 513.46H933.7V511.31H939.31V513.46ZM928.09 513.46H922.48V511.31H928.09V513.46ZM916.87 513.46H911.26V511.31H916.87V513.46ZM905.64 513.46H900.03V511.31H905.64V513.46ZM894.42 513.46H888.81V511.31H894.42V513.46ZM883.2 513.46H877.59V511.31H883.2V513.46ZM871.98 513.46H866.37V511.31H871.98V513.46ZM860.75 513.46H855.14V511.31H860.75V513.46ZM849.53 513.46H843.92V511.31H849.53V513.46ZM838.31 513.46H832.7V511.31H838.31V513.46ZM827.09 513.46H821.48V511.31H827.09V513.46ZM815.87 513.46H810.26V511.31H815.87V513.46ZM804.64 513.46H799.03V511.31H804.64V513.46ZM793.42 513.46H787.81V511.31H793.42V513.46ZM782.2 513.46H776.59V511.31H782.2V513.46Z" class="change-color-in-svg" fill="#4D61FC" style="fill: rgb(255, 104, 59);"/>
<path d="M1016.41 1031.39H400.59V626.51C400.59 619.81 406.02 614.38 412.72 614.38H1004.27C1010.97 614.38 1016.4 619.81 1016.4 626.51V1031.39H1016.41Z" fill="#B2B6BB"/>
<path d="M1010.8 1023.29H394.979V626.51C394.979 619.81 400.409 614.38 407.109 614.38H998.659C1005.36 614.38 1010.79 619.81 1010.79 626.51V1023.29H1010.8Z" fill="#61656D"/>
<path d="M989.749 636.05H416.029V1001.61H989.749V636.05Z" fill="white"/>
<path d="M1012.4 1023.27H776.14C773.93 1023.27 772.14 1025.06 772.14 1027.27V1040.07C776.57 1045.82 783.4 1049.19 790.66 1049.19H997.9C1001.16 1049.19 1004.34 1048.51 1007.25 1047.24C1012.86 1044.79 1016.41 1039.14 1016.41 1033.02V1027.28C1016.41 1025.06 1014.62 1023.27 1012.4 1023.27Z" fill="#868A91"/>
<path d="M856.549 1023.27H258.48C256.27 1023.27 254.479 1025.06 254.479 1027.27V1033.01C254.479 1039.14 258.03 1044.78 263.64 1047.23C266.55 1048.5 269.729 1049.18 272.989 1049.18H842.039C845.299 1049.18 848.48 1048.5 851.39 1047.23C857 1044.78 860.549 1039.13 860.549 1033.01V1027.27C860.559 1025.06 858.759 1023.27 856.549 1023.27Z" fill="#B2B6BB"/>
<path d="M603.859 1033.75H511.159C504.339 1033.75 498.199 1029.6 495.659 1023.27H619.369C616.819 1029.6 610.689 1033.75 603.859 1033.75Z" fill="#868A91"/>
<path d="M989.749 636.05H416.029V668.67H989.749V636.05Z" fill="#21252B"/>
<path d="M993.499 636.05H419.779V668.67H993.499V636.05Z" fill="#21252B"/>
<path d="M431.899 658.159C435.71 658.159 438.799 655.07 438.799 651.259C438.799 647.449 435.71 644.359 431.899 644.359C428.088 644.359 424.999 647.449 424.999 651.259C424.999 655.07 428.088 658.159 431.899 658.159Z" class="change-color-in-svg" fill="#4D61FC" style="fill: rgb(255, 104, 59);"/>
<path d="M456.769 658.159C460.58 658.159 463.669 655.07 463.669 651.259C463.669 647.449 460.58 644.359 456.769 644.359C452.958 644.359 449.869 647.449 449.869 651.259C449.869 655.07 452.958 658.159 456.769 658.159Z" fill="#DADDDF"/>
<path d="M481.629 658.159C485.44 658.159 488.529 655.07 488.529 651.259C488.529 647.449 485.44 644.359 481.629 644.359C477.819 644.359 474.729 647.449 474.729 651.259C474.729 655.07 477.819 658.159 481.629 658.159Z" fill="#61656D"/>
<path d="M897.89 710.67H553.799C550.719 710.67 548.229 708.18 548.229 705.1V688.5C548.229 685.42 550.719 682.93 553.799 682.93H897.89C900.97 682.93 903.46 685.42 903.46 688.5V705.1C903.46 708.17 900.96 710.67 897.89 710.67Z" fill="#DADDDF"/>
<path d="M889.669 692.93C887.619 690.88 884.289 690.88 882.249 692.93C880.199 694.98 880.199 698.31 882.249 700.35C884.119 702.22 887.059 702.36 889.119 700.8L892.049 703.73L893.059 702.72L890.129 699.79C891.679 697.74 891.539 694.8 889.669 692.93ZM888.659 699.34C887.169 700.83 884.739 700.83 883.249 699.34C881.759 697.85 881.759 695.43 883.249 693.94C884.739 692.45 887.159 692.45 888.649 693.94C890.149 695.43 890.149 697.85 888.659 699.34Z" fill="#61656D"/>
<path d="M935.48 692.22H919.92V693.75H935.48V692.22Z" fill="#61656D"/>
<path d="M935.48 697.68H919.92V699.21H935.48V697.68Z" fill="#61656D"/>
<path d="M935.48 703.13H919.92V704.66H935.48V703.13Z" fill="#61656D"/>
<path d="M455.87 710.67H437.97C435.25 710.67 433.05 708.47 433.05 705.75V687.85C433.05 685.13 435.25 682.93 437.97 682.93H455.87C458.59 682.93 460.79 685.13 460.79 687.85V705.75C460.79 708.46 458.59 710.67 455.87 710.67Z" class="change-color-in-svg" fill="#4D61FC" style="fill: rgb(255, 104, 59);"/>
<path d="M446.92 700.569C442.85 700.569 439.55 697.269 439.55 693.199V693.029H454.3V693.199C454.29 697.269 450.99 700.569 446.92 700.569Z" fill="white"/>
<path d="M963.31 708.29C969.661 708.29 974.81 703.141 974.81 696.79C974.81 690.439 969.661 685.29 963.31 685.29C956.958 685.29 951.81 690.439 951.81 696.79C951.81 703.141 956.958 708.29 963.31 708.29Z" class="change-color-in-svg" fill="#4D61FC" style="fill: rgb(255, 104, 59);"/>
<path d="M963.31 697.05C965.552 697.05 967.37 695.232 967.37 692.99C967.37 690.747 965.552 688.93 963.31 688.93C961.068 688.93 959.25 690.747 959.25 692.99C959.25 695.232 961.068 697.05 963.31 697.05Z" class="change-color-in-svg" fill="#4D61FC" style="fill: rgb(255, 104, 59);"/>
<path d="M972.629 703.52C970.539 706.41 967.149 708.29 963.309 708.29C959.479 708.29 956.079 706.42 953.989 703.52C954.489 700.46 957.119 698.19 960.249 698.19H966.349C969.499 698.19 972.119 700.46 972.629 703.52Z" class="change-color-in-svg" fill="#4D61FC" style="fill: rgb(255, 104, 59);"/>
<path opacity="0.8" d="M963.31 697.05C965.552 697.05 967.37 695.232 967.37 692.99C967.37 690.747 965.552 688.93 963.31 688.93C961.068 688.93 959.25 690.747 959.25 692.99C959.25 695.232 961.068 697.05 963.31 697.05Z" fill="white"/>
<path opacity="0.8" d="M972.629 703.52C970.539 706.41 967.149 708.29 963.309 708.29C959.479 708.29 956.079 706.42 953.989 703.52C954.489 700.46 957.119 698.19 960.249 698.19H966.349C969.499 698.19 972.119 700.46 972.629 703.52Z" fill="white"/>
<path d="M451.44 769.06H437.68C435.35 769.06 433.46 767.17 433.46 764.84V751.68C433.46 749.35 435.35 747.46 437.68 747.46H451.44C453.77 747.46 455.66 749.35 455.66 751.68V764.84C455.66 767.16 453.77 769.06 451.44 769.06Z" class="change-color-in-svg" fill="#4D61FC" style="fill: rgb(255, 104, 59);"/>
<path d="M532.95 762.44H468.44C467.28 762.44 466.34 761.5 466.34 760.34V756.17C466.34 755.01 467.28 754.07 468.44 754.07H532.95C534.11 754.07 535.05 755.01 535.05 756.17V760.34C535.05 761.5 534.11 762.44 532.95 762.44Z" class="change-color-in-svg" fill="#4D61FC" style="fill: rgb(255, 104, 59);"/>
<path d="M532.95 812.309H468.44C467.28 812.309 466.34 811.369 466.34 810.209V806.039C466.34 804.879 467.28 803.939 468.44 803.939H532.95C534.11 803.939 535.05 804.879 535.05 806.039V810.209C535.05 811.369 534.11 812.309 532.95 812.309Z" class="change-color-in-svg" fill="#4D61FC" style="fill: rgb(255, 104, 59);"/>
<path d="M532.95 862.19H468.44C467.28 862.19 466.34 861.25 466.34 860.09V855.92C466.34 854.76 467.28 853.82 468.44 853.82H532.95C534.11 853.82 535.05 854.76 535.05 855.92V860.09C535.05 861.25 534.11 862.19 532.95 862.19Z" class="change-color-in-svg" fill="#4D61FC" style="fill: rgb(255, 104, 59);"/>
<path d="M532.95 912.059H468.44C467.28 912.059 466.34 911.119 466.34 909.959V905.789C466.34 904.629 467.28 903.689 468.44 903.689H532.95C534.11 903.689 535.05 904.629 535.05 905.789V909.959C535.05 911.119 534.11 912.059 532.95 912.059Z" class="change-color-in-svg" fill="#4D61FC" style="fill: rgb(255, 104, 59);"/>
<path d="M532.95 961.94H468.44C467.28 961.94 466.34 961 466.34 959.84V955.67C466.34 954.51 467.28 953.57 468.44 953.57H532.95C534.11 953.57 535.05 954.51 535.05 955.67V959.84C535.05 961 534.11 961.94 532.95 961.94Z" class="change-color-in-svg" fill="#4D61FC" style="fill: rgb(255, 104, 59);"/>
<path d="M451.44 818.93H437.68C435.35 818.93 433.46 817.04 433.46 814.71V801.55C433.46 799.22 435.35 797.33 437.68 797.33H451.44C453.77 797.33 455.66 799.22 455.66 801.55V814.71C455.66 817.04 453.77 818.93 451.44 818.93Z" class="change-color-in-svg" fill="#4D61FC" style="fill: rgb(255, 104, 59);"/>
<path d="M451.44 868.81H437.68C435.35 868.81 433.46 866.92 433.46 864.59V851.43C433.46 849.1 435.35 847.21 437.68 847.21H451.44C453.77 847.21 455.66 849.1 455.66 851.43V864.59C455.66 866.91 453.77 868.81 451.44 868.81Z" class="change-color-in-svg" fill="#4D61FC" style="fill: rgb(255, 104, 59);"/>
<path d="M451.44 918.68H437.68C435.35 918.68 433.46 916.79 433.46 914.46V901.3C433.46 898.97 435.35 897.08 437.68 897.08H451.44C453.77 897.08 455.66 898.97 455.66 901.3V914.46C455.66 916.79 453.77 918.68 451.44 918.68Z" class="change-color-in-svg" fill="#4D61FC" style="fill: rgb(255, 104, 59);"/>
<path d="M451.44 968.56H437.68C435.35 968.56 433.46 966.67 433.46 964.34V951.18C433.46 948.85 435.35 946.96 437.68 946.96H451.44C453.77 946.96 455.66 948.85 455.66 951.18V964.34C455.66 966.66 453.77 968.56 451.44 968.56Z" class="change-color-in-svg" fill="#4D61FC" style="fill: rgb(255, 104, 59);"/>
<path d="M451.44 769.06H437.68C435.35 769.06 433.46 767.17 433.46 764.84V751.68C433.46 749.35 435.35 747.46 437.68 747.46H451.44C453.77 747.46 455.66 749.35 455.66 751.68V764.84C455.66 767.16 453.77 769.06 451.44 769.06Z" fill="#B2B6BB"/>
<path d="M532.95 762.44H468.44C467.28 762.44 466.34 761.5 466.34 760.34V756.17C466.34 755.01 467.28 754.07 468.44 754.07H532.95C534.11 754.07 535.05 755.01 535.05 756.17V760.34C535.05 761.5 534.11 762.44 532.95 762.44Z" fill="#B2B6BB"/>
<path d="M532.95 812.309H468.44C467.28 812.309 466.34 811.369 466.34 810.209V806.039C466.34 804.879 467.28 803.939 468.44 803.939H532.95C534.11 803.939 535.05 804.879 535.05 806.039V810.209C535.05 811.369 534.11 812.309 532.95 812.309Z" fill="#B2B6BB"/>
<path d="M532.95 862.19H468.44C467.28 862.19 466.34 861.25 466.34 860.09V855.92C466.34 854.76 467.28 853.82 468.44 853.82H532.95C534.11 853.82 535.05 854.76 535.05 855.92V860.09C535.05 861.25 534.11 862.19 532.95 862.19Z" fill="#B2B6BB"/>
<path d="M532.95 912.059H468.44C467.28 912.059 466.34 911.119 466.34 909.959V905.789C466.34 904.629 467.28 903.689 468.44 903.689H532.95C534.11 903.689 535.05 904.629 535.05 905.789V909.959C535.05 911.119 534.11 912.059 532.95 912.059Z" fill="#B2B6BB"/>
<path d="M532.95 961.94H468.44C467.28 961.94 466.34 961 466.34 959.84V955.67C466.34 954.51 467.28 953.57 468.44 953.57H532.95C534.11 953.57 535.05 954.51 535.05 955.67V959.84C535.05 961 534.11 961.94 532.95 961.94Z" fill="#B2B6BB"/>
<path d="M451.44 818.93H437.68C435.35 818.93 433.46 817.04 433.46 814.71V801.55C433.46 799.22 435.35 797.33 437.68 797.33H451.44C453.77 797.33 455.66 799.22 455.66 801.55V814.71C455.66 817.04 453.77 818.93 451.44 818.93Z" fill="#B2B6BB"/>
<path d="M451.44 868.81H437.68C435.35 868.81 433.46 866.92 433.46 864.59V851.43C433.46 849.1 435.35 847.21 437.68 847.21H451.44C453.77 847.21 455.66 849.1 455.66 851.43V864.59C455.66 866.91 453.77 868.81 451.44 868.81Z" fill="#B2B6BB"/>
<path d="M451.44 918.68H437.68C435.35 918.68 433.46 916.79 433.46 914.46V901.3C433.46 898.97 435.35 897.08 437.68 897.08H451.44C453.77 897.08 455.66 898.97 455.66 901.3V914.46C455.66 916.79 453.77 918.68 451.44 918.68Z" fill="#B2B6BB"/>
<path d="M451.44 968.56H437.68C435.35 968.56 433.46 966.67 433.46 964.34V951.18C433.46 948.85 435.35 946.96 437.68 946.96H451.44C453.77 946.96 455.66 948.85 455.66 951.18V964.34C455.66 966.66 453.77 968.56 451.44 968.56Z" fill="#B2B6BB"/>
<path d="M989.749 724.51H416.029V725.21H989.749V724.51Z" fill="#DADDDF"/>
<path d="M548.58 724.859H547.88V1001.61H548.58V724.859Z" fill="#DADDDF"/>
<path d="M963.869 751.71H566.859C564.929 751.71 563.359 750.14 563.359 748.21V740.7C563.359 738.77 564.929 737.2 566.859 737.2H963.869C965.799 737.2 967.369 738.77 967.369 740.7V748.21C967.369 750.14 965.799 751.71 963.869 751.71Z" fill="#868A91"/>
<path d="M837.749 988.519H565.629C564.379 988.519 563.369 987.509 563.369 986.259C563.369 985.009 564.379 983.999 565.629 983.999H837.749C838.999 983.999 840.009 985.009 840.009 986.259C840.009 987.509 838.989 988.519 837.749 988.519Z" fill="#B2B6BB"/>
<path d="M837.749 968.559H565.629C564.379 968.559 563.369 967.549 563.369 966.299C563.369 965.049 564.379 964.039 565.629 964.039H837.749C838.999 964.039 840.009 965.049 840.009 966.299C840.009 967.539 838.989 968.559 837.749 968.559Z" fill="#B2B6BB"/>
<path d="M837.749 948.589H565.629C564.379 948.589 563.369 947.579 563.369 946.329C563.369 945.079 564.379 944.069 565.629 944.069H837.749C838.999 944.069 840.009 945.079 840.009 946.329C840.009 947.579 838.989 948.589 837.749 948.589Z" fill="#B2B6BB"/>
<path d="M837.749 928.62H565.629C564.379 928.62 563.369 927.61 563.369 926.36C563.369 925.11 564.379 924.1 565.629 924.1H837.749C838.999 924.1 840.009 925.11 840.009 926.36C840.009 927.61 838.989 928.62 837.749 928.62Z" fill="#B2B6BB"/>
<path d="M837.749 908.649H565.629C564.379 908.649 563.369 907.639 563.369 906.389C563.369 905.139 564.379 904.129 565.629 904.129H837.749C838.999 904.129 840.009 905.139 840.009 906.389C840.009 907.639 838.989 908.649 837.749 908.649Z" fill="#B2B6BB"/>
<path d="M837.749 888.679H565.629C564.379 888.679 563.369 887.669 563.369 886.419C563.369 885.169 564.379 884.159 565.629 884.159H837.749C838.999 884.159 840.009 885.169 840.009 886.419C840.009 887.669 838.989 888.679 837.749 888.679Z" fill="#B2B6BB"/>
<path d="M965.11 868.719H743.61C742.36 868.719 741.35 867.709 741.35 866.459C741.35 865.209 742.36 864.199 743.61 864.199H965.1C966.35 864.199 967.36 865.209 967.36 866.459C967.37 867.709 966.36 868.719 965.11 868.719Z" fill="#B2B6BB"/>
<path d="M965.11 848.75H743.61C742.36 848.75 741.35 847.74 741.35 846.49C741.35 845.24 742.36 844.229 743.61 844.229H965.1C966.35 844.229 967.36 845.24 967.36 846.49C967.37 847.74 966.36 848.75 965.11 848.75Z" fill="#B2B6BB"/>
<path d="M965.11 828.78H743.61C742.36 828.78 741.35 827.77 741.35 826.52C741.35 825.27 742.36 824.26 743.61 824.26H965.1C966.35 824.26 967.36 825.27 967.36 826.52C967.37 827.77 966.36 828.78 965.11 828.78Z" fill="#B2B6BB"/>
<path d="M965.11 808.809H743.61C742.36 808.809 741.35 807.799 741.35 806.549C741.35 805.299 742.36 804.289 743.61 804.289H965.1C966.35 804.289 967.36 805.299 967.36 806.549C967.37 807.799 966.36 808.809 965.11 808.809Z" fill="#B2B6BB"/>
<path d="M965.11 788.849H743.61C742.36 788.849 741.35 787.839 741.35 786.589C741.35 785.339 742.36 784.329 743.61 784.329H965.1C966.35 784.329 967.36 785.339 967.36 786.589C967.37 787.829 966.36 788.849 965.11 788.849Z" fill="#B2B6BB"/>
<path d="M965.11 768.879H743.61C742.36 768.879 741.35 767.869 741.35 766.619C741.35 765.369 742.36 764.359 743.61 764.359H965.1C966.35 764.359 967.36 765.369 967.36 766.619C967.37 767.869 966.36 768.879 965.11 768.879Z" fill="#B2B6BB"/>
<path d="M548.229 782.84H416.029V783.54H548.229V782.84Z" fill="#DADDDF"/>
<path d="M548.229 832.71H416.029V833.41H548.229V832.71Z" fill="#DADDDF"/>
<path d="M548.229 882.59H416.029V883.29H548.229V882.59Z" fill="#DADDDF"/>
<path d="M548.229 932.46H416.029V933.16H548.229V932.46Z" fill="#DADDDF"/>
<path d="M548.229 982.34H416.029V983.04H548.229V982.34Z" fill="#DADDDF"/>
<path d="M563.359 772.67V862.88C563.359 867.64 567.219 871.51 571.989 871.51H713.099C717.859 871.51 721.729 867.65 721.729 862.88V772.67C721.729 767.91 717.869 764.04 713.099 764.04H571.989C567.229 764.05 563.359 767.91 563.359 772.67Z" fill="#DADDDF"/>
<path d="M638.609 826.97C653.317 826.97 665.24 815.047 665.24 800.34C665.24 785.633 653.317 773.71 638.609 773.71C623.902 773.71 611.979 785.633 611.979 800.34C611.979 815.047 623.902 826.97 638.609 826.97Z" class="change-color-in-svg" fill="#4D61FC" style="fill: rgb(255, 104, 59);"/>
<path opacity="0.2" d="M582.239 864.661L623.199 838.481L582.679 812.311L582.239 864.661Z" fill="black"/>
<path opacity="0.2" d="M649.063 803.256L649.063 860.836L706.643 860.836L706.643 803.256L649.063 803.256Z" fill="black"/>
<path d="M959.2 988.52H866.9C862.14 988.52 858.27 984.66 858.27 979.89V887.59C858.27 882.83 862.13 878.96 866.9 878.96H959.2C963.96 878.96 967.83 882.82 967.83 887.59V979.89C967.83 984.66 963.96 988.52 959.2 988.52Z" fill="#DADDDF"/>
<path opacity="0.2" d="M913.049 935.83C895.919 935.83 882.029 921.94 882.029 904.81V902.2H944.069V904.81C944.069 921.94 930.179 935.83 913.049 935.83Z" fill="black"/>
<path d="M944.069 947.45H882.029V965.3H944.069V947.45Z" class="change-color-in-svg" fill="#4D61FC" style="fill: rgb(255, 104, 59);"/>
<path d="M522.21 703.129H471.63C469.72 703.129 468.17 701.579 468.17 699.669V692.399C468.17 690.489 469.72 688.939 471.63 688.939H522.21C524.12 688.939 525.67 690.489 525.67 692.399V699.669C525.68 701.579 524.12 703.129 522.21 703.129Z" class="change-color-in-svg" fill="#4D61FC" style="fill: rgb(255, 104, 59);"/>
<path d="M825.709 438.7C825.819 437.07 825.879 435.43 825.879 433.77C825.879 393.06 792.879 360.06 752.169 360.06C721.569 360.06 695.319 378.71 684.179 405.26C680.609 404.11 676.809 403.47 672.859 403.47C654.119 403.47 638.679 417.51 636.439 435.64C611.949 440.15 593.399 461.61 593.399 487.4C593.399 516.47 616.969 540.04 646.039 540.04H805.739C834.809 540.04 858.379 516.47 858.379 487.4C858.369 465.41 844.869 446.57 825.709 438.7Z" class="change-color-in-svg" fill="#4D61FC" style="fill: rgb(255, 104, 59);"/>
<path d="M449.339 441.95L472.219 426.23C473.289 425.49 474.679 425.42 475.829 426L484.299 430.34L536.499 394.48C538.099 393.38 540.299 393.77 541.409 395.39L579.659 451.08C580.679 452.56 580.299 454.57 578.819 455.59L496.949 511.82C495.489 512.82 493.479 512.45 492.479 510.99L448.399 446.82C447.329 445.22 447.739 443.05 449.339 441.95Z" class="change-color-in-svg" fill="#4D61FC" style="fill: rgb(255, 104, 59);"/>
<path d="M581.109 452.49L563.439 393.66C562.989 392.14 561.179 391.49 559.859 392.39L477.23 449.15C476.11 449.92 475.599 451.33 475.999 452.63L493.609 511.22C493.959 512.39 495.36 512.9 496.39 512.19L580.429 454.46C581.049 454.08 581.319 453.26 581.109 452.49Z" class="change-color-in-svg" fill="#4D61FC" style="fill: rgb(255, 104, 59);"/>
<path opacity="0.4" d="M581.109 452.49L563.439 393.66C562.989 392.14 561.179 391.49 559.859 392.39L477.23 449.15C476.11 449.92 475.599 451.33 475.999 452.63L493.609 511.22C493.959 512.39 495.36 512.9 496.39 512.19L580.429 454.46C581.049 454.08 581.319 453.26 581.109 452.49Z" fill="white"/>
<path opacity="0.6" d="M581.109 452.49L563.439 393.66Z" fill="white"/>
<path d="M840.74 349.96L774.8 341.4C772.6 341.11 771.05 339.1 771.33 336.9L782.33 252.14C782.62 249.94 784.63 248.39 786.83 248.67L852.58 257.16C854.78 257.44 856.33 259.45 856.05 261.65L845.24 346.48C844.96 348.69 842.94 350.25 840.74 349.96Z" class="change-color-in-svg" fill="#4D61FC" style="fill: rgb(255, 104, 59);"/>
<path opacity="0.2" d="M840.74 349.96L774.8 341.4C772.6 341.11 771.05 339.1 771.33 336.9L782.33 252.14C782.62 249.94 784.63 248.39 786.83 248.67L852.58 257.16C854.78 257.44 856.33 259.45 856.05 261.65L845.24 346.48C844.96 348.69 842.94 350.25 840.74 349.96Z" fill="white"/>
<path d="M846.7 346.18L782.52 321.71C781.01 321.13 780.25 319.44 780.83 317.93L812.049 236.04C812.629 234.53 814.32 233.77 815.83 234.35L862.78 252.25L875.049 280.02L850.469 344.49C849.899 345.99 848.21 346.75 846.7 346.18Z" class="change-color-in-svg" fill="#4D61FC" style="fill: rgb(255, 104, 59);"/>
<path opacity="0.6" d="M846.7 346.18L782.52 321.71C781.01 321.13 780.25 319.44 780.83 317.93L812.049 236.04C812.629 234.53 814.32 233.77 815.83 234.35L862.78 252.25L875.049 280.02L850.469 344.49C849.899 345.99 848.21 346.75 846.7 346.18Z" fill="white"/>
<path d="M875.049 280.01L857.829 273.44C856.319 272.86 855.559 271.17 856.139 269.66L862.779 252.24L875.049 280.01Z" class="change-color-in-svg" fill="#4D61FC" style="fill: rgb(255, 104, 59);"/>
<path opacity="0.2" d="M875.049 280.01L857.829 273.44C856.319 272.86 855.559 271.17 856.139 269.66L862.779 252.24L875.049 280.01Z" fill="white"/>
<path d="M826.252 248.585L818.44 245.607L811.438 263.978L819.249 266.956L826.252 248.585Z" class="change-color-in-svg" fill="#4D61FC" style="fill: rgb(255, 104, 59);"/>
<path d="M830.841 260.008L823.029 257.03L819.246 266.954L827.058 269.931L830.841 260.008Z" fill="white"/>
<path d="M860.207 292.601L808.096 272.735L806.493 276.94L858.604 296.805L860.207 292.601Z" fill="white"/>
<path d="M854.056 308.741L801.944 288.876L800.341 293.081L852.453 312.946L854.056 308.741Z" fill="white"/>
<path d="M832.363 318.95L795.8 305.012L794.197 309.217L830.76 323.155L832.363 318.95Z" fill="white"/>
<path d="M993.547 388.683L902.396 370.917L888.83 440.515L979.982 458.281L993.547 388.683Z" fill="white"/>
<path d="M988.038 392.54L906.043 376.559L894.33 436.656L976.324 452.637L988.038 392.54Z" class="change-color-in-svg" fill="#4D61FC" style="fill: rgb(255, 104, 59);"/>
<path opacity="0.7" d="M988.038 392.54L906.043 376.559L894.33 436.656L976.324 452.637L988.038 392.54Z" fill="white"/>
<path d="M981.9 424.28L965.83 403.68C965 402.62 963.51 402.33 962.35 403L937.36 417.44L928.35 405.89C927.52 404.83 926.04 404.54 924.87 405.21L897.41 421.06L894.38 436.63L976.37 452.61L981.9 424.28Z" class="change-color-in-svg" fill="#4D61FC" style="fill: rgb(255, 104, 59);"/>
<path opacity="0.2" d="M981.899 424.28L965.869 403.73C965.019 402.64 963.489 402.34 962.299 403.03L937.369 417.44L928.399 405.94C927.549 404.85 926.019 404.55 924.829 405.24L897.429 421.06L894.399 436.63L976.389 452.61L981.899 424.28Z" fill="white"/>
<path d="M941.31 400.169C943.983 400.169 946.15 398.002 946.15 395.329C946.15 392.656 943.983 390.489 941.31 390.489C938.637 390.489 936.47 392.656 936.47 395.329C936.47 398.002 938.637 400.169 941.31 400.169Z" fill="white"/>
<path opacity="0.5" d="M937.369 417.439L932.329 420.349C931.429 420.869 930.279 420.389 930.019 419.389L926.169 404.879C927.019 404.869 927.849 405.239 928.399 405.939L937.369 417.439Z" class="change-color-in-svg" fill="#4D61FC" style="fill: rgb(255, 104, 59);"/>
<path opacity="0.5" d="M981.909 424.28L977.909 444.81L964.329 402.72C964.929 402.86 965.479 403.21 965.879 403.72L981.909 424.28Z" class="change-color-in-svg" fill="#4D61FC" style="fill: rgb(255, 104, 59);"/>
<path d="M674.859 360.509L620.999 365.259C613.659 365.909 607.189 360.479 606.539 353.139L601.789 299.289C601.139 291.949 606.569 285.479 613.909 284.829L667.759 280.079C675.099 279.429 681.569 284.859 682.219 292.199L686.969 346.049C687.619 353.389 682.189 359.869 674.859 360.509Z" class="change-color-in-svg" fill="#4D61FC" style="fill: rgb(255, 104, 59);"/>
<path opacity="0.2" d="M674.859 360.509L620.999 365.259C613.659 365.909 607.189 360.479 606.539 353.139L601.789 299.289C601.139 291.949 606.569 285.479 613.909 284.829L667.759 280.079C675.099 279.429 681.569 284.859 682.219 292.199L686.969 346.049C687.619 353.389 682.189 359.869 674.859 360.509Z" fill="white"/>
<path d="M661.619 301.079C661.249 300.759 660.789 300.629 660.349 300.729L632.589 308.719C631.799 308.889 631.259 309.739 631.339 310.689L633.209 335.499C631.679 334.619 629.989 334.239 628.309 334.399C623.929 334.789 620.669 338.429 621.029 342.519C621.389 346.609 625.239 349.629 629.619 349.239C633.999 348.849 637.259 345.209 636.899 341.119L635.479 321.359L660.099 314.059L661.439 329.269C659.909 328.389 658.219 328.009 656.549 328.169C652.169 328.559 648.909 332.199 649.269 336.289C649.629 340.379 653.479 343.399 657.859 343.009C662.239 342.619 665.499 338.979 665.139 334.889L662.279 302.429C662.229 301.889 661.989 301.399 661.619 301.079Z" fill="white"/>
<path d="M629.059 501.139L624.669 499.229L625.529 497.259L629.919 499.169L629.059 501.139ZM619.519 496.989L614.379 494.749L615.239 492.779L620.379 495.019L619.519 496.989ZM609.229 492.509L604.089 490.269L604.949 488.299L610.089 490.539L609.229 492.509ZM598.949 488.029L593.809 485.789L594.669 483.819L599.809 486.059L598.949 488.029ZM588.659 483.539L583.519 481.299L584.379 479.329L589.519 481.569L588.659 483.539ZM578.369 479.059L573.229 476.819L574.089 474.849L579.229 477.089L578.369 479.059ZM568.079 474.579L562.939 472.339L563.799 470.369L568.939 472.609L568.079 474.579Z" class="change-color-in-svg" fill="#4D61FC" style="fill: rgb(255, 104, 59);"/>
<path d="M680.189 410.61L677.379 405.76L679.239 404.68L682.049 409.53L680.189 410.61ZM674.559 400.9L671.749 396.05L673.609 394.97L676.419 399.82L674.559 400.9ZM668.929 391.19L666.119 386.34L667.979 385.26L670.789 390.11L668.929 391.19ZM663.299 381.49L660.489 376.64L662.349 375.56L665.159 380.41L663.299 381.49ZM657.669 371.78L654.859 366.93L656.719 365.85L659.529 370.7L657.669 371.78Z" class="change-color-in-svg" fill="#4D61FC" style="fill: rgb(255, 104, 59);"/>
<path d="M787.95 395.46L786.01 394.53L788.44 389.47L790.38 390.4L787.95 395.46ZM792.81 385.34L790.87 384.41L793.3 379.35L795.24 380.28L792.81 385.34ZM797.67 375.22L795.73 374.29L798.16 369.23L800.1 370.16L797.67 375.22ZM802.52 365.11L800.58 364.18L803.01 359.12L804.95 360.05L802.52 365.11ZM807.38 354.99L805.44 354.06L807.87 349L809.81 349.93L807.38 354.99Z" class="change-color-in-svg" fill="#4D61FC" style="fill: rgb(255, 104, 59);"/>
<path d="M805.619 467.51L804.869 465.49L810.129 463.54L810.879 465.56L805.619 467.51ZM816.149 463.62L815.399 461.6L820.659 459.65L821.409 461.67L816.149 463.62ZM826.679 459.73L825.929 457.71L831.189 455.76L831.939 457.78L826.679 459.73ZM837.199 455.84L836.449 453.82L841.709 451.87L842.459 453.89L837.199 455.84ZM847.729 451.95L846.979 449.93L852.239 447.98L852.989 450L847.729 451.95ZM858.249 448.06L857.499 446.04L862.759 444.09L863.509 446.11L858.249 448.06ZM868.779 444.17L868.029 442.15L873.289 440.2L874.039 442.22L868.779 444.17ZM879.309 440.28L878.559 438.26L883.819 436.31L884.569 438.33L879.309 440.28Z" class="change-color-in-svg" fill="#4D61FC" style="fill: rgb(255, 104, 59);"/>
<path d="M726.96 614.38H724.81V608.77H726.96V614.38ZM726.96 603.15H724.81V597.54H726.96V603.15ZM726.96 591.93H724.81V586.32H726.96V591.93ZM726.96 580.71H724.81V575.1H726.96V580.71ZM726.96 569.49H724.81V563.88H726.96V569.49ZM726.96 558.26H724.81V552.65H726.96V558.26ZM726.96 547.04H724.81V541.43H726.96V547.04ZM726.96 535.82H724.81V530.21H726.96V535.82ZM726.96 524.6H724.81V518.99H726.96V524.6ZM726.96 513.38H724.81V507.77H726.96V513.38Z" class="change-color-in-svg" fill="#4D61FC" style="fill: rgb(255, 104, 59);"/>
<path d="M727.62 581.71H722.73C721.6 581.71 720.68 580.79 720.68 579.66V574.77C720.68 573.64 721.6 572.72 722.73 572.72H727.62C728.75 572.72 729.67 573.64 729.67 574.77V579.66C729.67 580.79 728.75 581.71 727.62 581.71Z" class="change-color-in-svg" fill="#4D61FC" style="fill: rgb(255, 104, 59);"/>
<path d="M906.64 517.18H901.419C900.209 517.18 899.229 516.2 899.229 514.99V509.77C899.229 508.56 900.209 507.58 901.419 507.58H906.64C907.85 507.58 908.83 508.56 908.83 509.77V515C908.83 516.2 907.85 517.18 906.64 517.18Z" class="change-color-in-svg" fill="#4D61FC" style="fill: rgb(255, 104, 59);"/>
<path d="M1043.51 516.889H1038.62C1037.49 516.889 1036.57 515.969 1036.57 514.839V509.949C1036.57 508.819 1037.49 507.899 1038.62 507.899H1043.51C1044.64 507.899 1045.56 508.819 1045.56 509.949V514.839C1045.57 515.969 1044.65 516.889 1043.51 516.889Z" class="change-color-in-svg" fill="#4D61FC" style="fill: rgb(255, 104, 59);"/>
<path d="M1116.79 594.16H1111.9C1110.77 594.16 1109.85 593.24 1109.85 592.11V587.22C1109.85 586.09 1110.77 585.17 1111.9 585.17H1116.79C1117.92 585.17 1118.84 586.09 1118.84 587.22V592.11C1118.85 593.24 1117.93 594.16 1116.79 594.16Z" class="change-color-in-svg" fill="#4D61FC" style="fill: rgb(255, 104, 59);"/>
<path d="M1116.87 727.57L1111.98 727.66C1110.85 727.68 1109.91 726.78 1109.89 725.64L1109.8 720.75C1109.78 719.62 1110.68 718.68 1111.82 718.66L1116.71 718.57C1117.84 718.55 1118.78 719.45 1118.8 720.59L1118.89 725.48C1118.91 726.62 1118 727.55 1116.87 727.57Z" class="change-color-in-svg" fill="#4D61FC" style="fill: rgb(255, 104, 59);"/>
<path d="M1425.74 1050.03H185.27C184.81 1050.03 184.43 1049.65 184.43 1049.19C184.43 1048.73 184.81 1048.35 185.27 1048.35H1425.74C1426.2 1048.35 1426.58 1048.73 1426.58 1049.19C1426.58 1049.65 1426.21 1050.03 1425.74 1050.03Z" fill="#B2B6BB"/>
<path d="M1148.95 831.47L1148.51 822.29C1148.43 820.65 1147.82 819.09 1146.78 817.82L1143.61 814C1142.78 812.99 1141.44 812.54 1140.17 812.84L1132.78 814.55C1132.42 814.63 1132.16 814.94 1132.14 815.31C1132.25 817.29 1133.82 818.86 1135.8 818.98L1140.35 819.25L1141.2 820.9C1141.31 821.11 1141.34 821.35 1141.28 821.58L1139.74 824.57C1138.75 826.5 1136.23 827.04 1134.53 825.69L1131.94 823.63L1127.68 831.63L1130.01 835.93C1131.3 838.3 1133.6 839.96 1136.26 840.43L1137.25 840.6C1137.77 840.69 1138.23 840.98 1138.53 841.42L1142.69 847.46L1153.75 838.33L1149.36 832.62C1149.12 832.27 1148.97 831.88 1148.95 831.47Z" fill="#FC9D9D"/>
<g opacity="0.15">
<path opacity="0.15" d="M1144.32 814.91C1145.37 816.17 1145.97 817.74 1146.05 819.38L1146.5 834.14C1146.51 834.53 1146.64 834.9 1146.86 835.22L1150.73 840.8L1153.75 838.3L1149.36 832.59C1149.11 832.26 1148.96 831.87 1148.94 831.45L1148.5 822.27C1148.42 820.63 1147.81 819.07 1146.77 817.8L1143.6 813.98C1143.49 813.85 1143.38 813.73 1143.26 813.62L1144.32 814.91Z" fill="black"/>
</g>
<path d="M1199.93 868.5L1190.26 877.73L1152.2 836.28L1140.08 843.79L1177.35 902.23C1182.52 910.33 1193.93 911.4 1200.51 904.4L1221.53 882.03L1199.93 868.5Z" class="change-color-in-svg" fill="#4D61FC" style="fill: rgb(255, 104, 59);"/>
<path d="M1127.48 819.27L1126.64 829.86L1114.93 808.19C1114.29 807.01 1114.7 805.55 1115.86 804.87C1117.03 804.18 1118.53 804.56 1119.23 805.72L1127.48 819.27Z" fill="#FC9D9D"/>
<path opacity="0.15" d="M1119.23 805.73C1118.67 804.82 1117.62 804.4 1116.62 804.6C1116.96 804.8 1117.25 805.07 1117.47 805.43L1122.31 813.38C1122.86 814.28 1123.21 815.3 1123.33 816.35L1124.4 825.75L1126.63 829.87L1127.47 819.28L1119.23 805.73Z" fill="black"/>
<path opacity="0.15" d="M1135.62 829.1L1132.69 826.92L1132.45 826.54L1131.77 832.58L1132.29 832.72L1132.6 830.13C1132.86 830.84 1133.47 831.38 1134.26 831.52L1136.41 831.57L1135.62 829.1Z" fill="black"/>
<path d="M1111.02 786.38L1110.03 786.98C1109.14 787.52 1108.87 788.68 1109.41 789.56L1135.55 831.8C1136.1 832.7 1137.29 832.96 1138.18 832.38L1139.62 831.43C1140.47 830.87 1140.71 829.73 1140.17 828.87L1113.57 786.98C1113.03 786.11 1111.89 785.85 1111.02 786.38Z" fill="#21252B"/>
<path d="M1123.09 808.85L1125.15 827.02L1130.08 835.99L1130.7 830.32L1127.84 808.27C1127.68 807.06 1126.63 806.15 1125.41 806.18C1124.01 806.21 1122.93 807.45 1123.09 808.85Z" fill="#FC9D9D"/>
<path d="M1129.49 818.28L1127.33 829.7L1130.94 835.44L1132.83 818.78C1132.9 818.13 1132.59 817.49 1132.03 817.15C1131.03 816.53 1129.71 817.11 1129.49 818.28Z" fill="#FC9D9D"/>
<path opacity="0.15" d="M1129.29 819.35L1127.81 827.19L1128.37 812.26L1129.29 819.35Z" fill="black"/>
<path opacity="0.6" d="M1152.2 836.28L1154.42 838.7L1141.89 846.64L1140.08 843.8L1152.2 836.28Z" fill="black"/>
<path d="M1185.87 905.86C1186.77 905.86 1187.5 905.13 1187.5 904.23C1187.5 903.329 1186.77 902.6 1185.87 902.6C1184.97 902.6 1184.24 903.329 1184.24 904.23C1184.24 905.13 1184.97 905.86 1185.87 905.86Z" fill="white"/>
<path d="M1206.65 763.73C1216.04 763.73 1223.65 756.119 1223.65 746.73C1223.65 737.342 1216.04 729.73 1206.65 729.73C1197.26 729.73 1189.65 737.342 1189.65 746.73C1189.65 756.119 1197.26 763.73 1206.65 763.73Z" fill="#21252B"/>
<path d="M734.099 1000.98L724.119 998.8C722.429 998.43 720.829 999.72 720.829 1001.45C720.829 1002.55 721.499 1003.54 722.519 1003.96L734.709 1008.94L734.099 1000.98Z" fill="#FC9D9D"/>
<path opacity="0.15" d="M734.099 1000.98L724.119 998.8C722.429 998.43 720.829 999.72 720.829 1001.45C720.829 1002.55 721.499 1003.54 722.519 1003.96L734.709 1008.94L734.099 1000.98Z" fill="black"/>
<path d="M809.929 1018.59L779.639 1021.75C776.239 1022.1 772.809 1021.41 769.819 1019.75L737.989 1001.65C734.669 1000.01 731.589 997.95 728.809 995.5L728.689 995.39C727.579 994.42 726.019 994.29 724.799 995.04L724.719 995.09C723.069 996.11 722.619 998.3 723.729 999.89L736.159 1017.72C737.779 1020.05 743.259 1024.23 745.789 1025.52C749.549 1027.42 752.479 1030.64 754.019 1034.56L757.159 1042.55C759.489 1048.47 766.519 1050.96 772.049 1047.82L776.299 1045.41L811.189 1047.63L809.929 1018.59Z" fill="#FC9D9D"/>
<g opacity="0.2">
<path opacity="0.2" d="M774.639 1042.18C774.339 1042.19 774.039 1042.26 773.769 1042.38L770.409 1043.88C766.299 1046.21 760.369 1044.6 756.649 1041.19L757.179 1042.53C759.509 1048.45 766.539 1050.94 772.069 1047.8L776.319 1045.39L811.209 1047.61L810.919 1040.93L774.639 1042.18Z" fill="black"/>
</g>
<path d="M880.709 1015.8L831.909 1036.39C829.459 1037.42 827.859 1039.83 827.859 1042.49C827.859 1046.15 830.819 1049.11 834.479 1049.11H894.269C901.289 1049.11 907.169 1043.79 907.869 1036.8L908.579 1029.74L923.209 1012.93L898.649 997.13L880.709 1015.8Z" fill="#FC9D9D"/>
<path d="M1170.91 932.51L1036.3 868.27C1024.07 862.43 1009.45 865.53 1000.64 875.83L894.999 999.24L916.419 1018.68L1020.8 923.77L1120.61 987.06L1166.44 967.3L1170.91 932.51Z" fill="#3F4249"/>
<path opacity="0.2" d="M1158.02 944.23C1157.5 943.89 1156.8 944.04 1156.37 944.49L1141.7 960.36C1140.73 961.41 1139.17 961.68 1137.9 961.02L1032.55 907.6C1027.04 904.81 1020.36 905.78 1015.88 910.03L908.639 1011.72L916.419 1018.68L1020.8 923.77L1120.61 987.06L1157.47 971.17L1142.22 963.26L1158.26 946.13C1158.79 945.57 1158.69 944.66 1158.02 944.23Z" fill="black"/>
<path d="M1328.34 1035.87C1328.97 1035.96 1329.58 1036.11 1330.18 1036.33L1351.69 1044.2C1353.03 1044.69 1353.59 1046.27 1352.88 1047.49C1352.31 1048.46 1351.12 1048.88 1350.07 1048.46L1330.81 1040.85L1325.2 1035.42L1328.34 1035.87Z" fill="#F99A9A"/>
<path opacity="0.15" d="M1328.23 1035.84C1328.85 1035.92 1329.46 1036.07 1330.04 1036.29L1351.69 1044.21C1353.03 1044.7 1353.59 1046.28 1352.88 1047.5C1352.31 1048.47 1351.12 1048.89 1350.07 1048.47L1330.81 1040.86L1325.2 1035.43L1328.23 1035.84Z" fill="black"/>
<path opacity="0.15" d="M1199.93 868.5L1194.2 873.96L1194.79 875.62C1195.38 877.28 1195.28 879.1 1194.54 880.69L1188.16 894.17C1186.17 898.37 1180.61 899.31 1177.35 896L1166.01 884.47L1177.34 902.23C1178.61 904.22 1180.26 905.79 1182.13 906.91C1182.15 906.92 1182.17 906.93 1182.18 906.94C1182.34 907.04 1182.5 907.12 1182.67 907.21C1182.89 907.33 1183.1 907.45 1183.32 907.56C1183.49 907.64 1183.65 907.71 1183.82 907.78C1184.04 907.88 1184.27 907.98 1184.5 908.07C1184.67 908.13 1184.84 908.19 1185.02 908.25C1185.25 908.33 1185.48 908.41 1185.72 908.47C1185.78 908.49 1185.83 908.51 1185.89 908.52V908.51C1190.91 909.87 1196.57 908.58 1200.51 904.4L1221.53 882.03L1199.93 868.5Z" fill="black"/>
<path d="M1285.61 1023.58L1304.51 1015.08L1305.62 1030.92C1305.71 1032.15 1306.65 1033.14 1307.87 1033.3L1325.94 1035.54C1327.31 1035.71 1328.65 1036.06 1329.92 1036.59L1347.81 1043.98C1349.13 1044.52 1349.7 1046.08 1349.05 1047.35L1349.02 1047.4C1348.47 1048.46 1347.28 1048.99 1346.14 1048.68C1340.61 1047.17 1325.19 1042.99 1325.19 1042.99L1303.71 1048.73C1296.86 1050.72 1289.78 1046.36 1288.47 1039.34L1288.06 1037.16L1285.61 1023.58Z" fill="#F99A9A"/>
<path d="M1222.99 989.44L1211.41 1009.43C1197.2 1033.99 1170.97 1049.11 1142.59 1049.11H791.749V1020.2L1125.83 980.75L1171.79 931.69C1183.78 973.39 1211.41 984.5 1222.99 989.44Z" fill="#3F4249"/>
<path d="M1311.23 1041.87L1322.51 1042.81C1325.21 1043.03 1327.29 1045.29 1327.29 1048C1327.29 1048.66 1326.76 1049.19 1326.1 1049.19H1301.54L1311.23 1041.87Z" fill="#F99A9A"/>
<g opacity="0.15">
<path opacity="0.15" d="M1324.16 1043.25C1323.63 1043 1322.86 1042.94 1322.85 1042.93L1313.56 1042.16C1313.2 1042.13 1312.94 1041.82 1312.96 1041.46C1312.99 1041.1 1313.3 1040.84 1313.66 1040.86L1322.96 1041.63C1323.02 1041.64 1324.39 1041.86 1325.19 1042.97L1324.16 1043.25Z" fill="black"/>
</g>
<path opacity="0.15" d="M1307.91 1033.29L1302.79 1032.99C1301.43 1032.82 1300.35 1031.76 1300.17 1030.41L1299.67 1024.07L1305.29 1023.83L1305.66 1030.97C1305.74 1032.19 1306.69 1033.17 1307.91 1033.29Z" fill="black"/>
<path d="M1293.48 820C1292.69 806.35 1281.38 795.68 1267.71 795.68L1236.88 802.04C1227.22 804.03 1223.34 812.41 1219.47 820.96L1215.89 829.22C1214.01 833.26 1212.8 836.61 1209.55 838.97L1205.02 842.49C1197.46 847.98 1194.93 857.33 1198.16 866.44L1201.28 876.13C1201.87 877.79 1201.77 879.61 1201.03 881.2L1184 917.42C1181.27 923.18 1177.06 928.11 1171.79 931.7C1167.61 934.57 1165.96 939.97 1167.86 944.68C1179.54 973.53 1209.3 985.63 1221.49 989.9C1224.23 990.86 1227.25 989.67 1228.6 987.1L1269.31 921.73L1285.76 1024.62L1305.28 1023.83L1293.48 820Z" class="change-color-in-svg" fill="#4D61FC" style="fill: rgb(255, 104, 59);"/>
<path opacity="0.15" d="M1293.48 820C1292.84 809.03 1285.42 799.99 1275.43 796.86C1281.25 802.22 1283.52 814.31 1284.34 826.4L1299.67 1024.06L1305.29 1023.82L1293.48 820Z" fill="black"/>
<path opacity="0.15" d="M1190.26 877.74L1185.85 882.01C1185.58 882.27 1185.14 882.25 1184.9 881.96C1184.68 881.7 1184.7 881.31 1184.94 881.07L1189.37 876.77L1190.26 877.74Z" fill="black"/>
<path opacity="0.2" d="M1203.38 981.85L1192.81 999.22C1182.45 1016.74 1163.89 1027.8 1143.55 1028.57L791.739 1041.87V1049.11H1142.58C1170.96 1049.11 1197.19 1033.99 1211.4 1009.43L1222.57 990.16C1218.95 988.86 1213.08 987.19 1203.38 981.85Z" fill="black"/>
<path d="M1205.55 773.92C1205.66 774.35 1205.43 774.79 1205.02 774.96L1204.99 774.97C1203.59 775.53 1202.76 776.97 1202.98 778.46L1202.99 778.51C1203.14 779.55 1203.76 780.45 1204.68 780.96C1205.47 781.4 1206.29 781.85 1206.29 781.85L1211.77 791.76C1214.29 796.32 1219.84 798.24 1224.64 796.2L1233.68 792.37L1238.63 804.63C1239.03 805.75 1238.83 806.99 1238.12 807.94L1231.09 817.31C1227.98 821.45 1230.47 827.41 1235.6 828.11C1241.37 828.9 1247.16 826.85 1251.15 822.62L1275.44 796.87L1260.55 775.26C1256.88 774.64 1253.62 772.56 1251.5 769.51L1237.77 749.69L1201.68 748.61L1205.55 773.92Z" fill="#FC9D9D"/>
<path d="M1238.01 829.57C1237.15 829.57 1236.28 829.511 1235.41 829.391C1232.54 829.001 1230.16 827.17 1229.04 824.49C1227.92 821.82 1228.29 818.831 1230.03 816.521L1237.06 807.151C1237.51 806.551 1237.63 805.76 1237.38 805.06L1238.4 804.1C1238.94 805.63 1239.07 806.62 1237.78 808.67L1232.12 818.1C1230.94 819.67 1230.69 821.69 1231.45 823.5C1232.21 825.31 1233.82 826.55 1235.77 826.82C1241.11 827.55 1246.5 825.64 1250.19 821.73L1274.48 795.98L1276.38 797.771L1252.09 823.521C1248.41 827.401 1243.29 829.57 1238.01 829.57Z" class="change-color-in-svg" fill="#4D61FC" style="fill: rgb(255, 104, 59);"/>
<g opacity="0.6">
<path opacity="0.6" d="M1238.01 829.57C1237.15 829.57 1236.28 829.51 1235.41 829.39C1232.54 829 1230.16 827.17 1229.04 824.49C1227.92 821.82 1228.29 818.83 1230.03 816.52L1238.4 804.09C1239.26 805.83 1238.66 807.3 1237.66 808.85L1232.11 818.08C1230.93 819.65 1230.68 821.67 1231.44 823.48C1232.2 825.29 1233.81 826.53 1235.76 826.8C1241.1 827.53 1246.49 825.62 1250.18 821.71L1274.47 795.96L1276.37 797.75L1252.08 823.5C1248.41 827.4 1243.29 829.57 1238.01 829.57Z" fill="black"/>
</g>
<path opacity="0.15" d="M1255.18 771.89L1250.45 765.86L1246.34 771.88L1255.18 771.89Z" fill="black"/>
<path opacity="0.15" d="M1233.66 792.37L1238.6 790.25C1239.37 789.92 1240.15 790.68 1239.85 791.45L1236.65 799.78L1233.66 792.37Z" fill="black"/>
<path d="M1272.49 756.3C1272.41 756.3 1272.34 756.29 1272.26 756.29C1269.38 756.14 1267.05 753.92 1266.86 751.05C1266.65 747.77 1266.09 744.31 1265.03 740.76C1256.24 711.24 1208.38 710.95 1201.34 745.08C1200.94 746.04 1200.69 747.08 1200.64 748.16C1200.62 748.61 1200.64 749.04 1200.68 749.47C1200.66 749.63 1200.64 749.79 1200.63 749.95C1200.63 749.95 1200.67 749.94 1200.73 749.93C1201.38 754.5 1205.3 758.03 1210.05 758.03C1211.84 758.03 1213.51 757.53 1214.93 756.67C1216.81 755.53 1219.23 756 1220.4 757.86C1223.48 762.76 1228.93 766.02 1235.15 766.02C1239.12 766.02 1242.78 764.69 1245.71 762.45C1247.25 763.18 1248.93 764.45 1250.04 766.67C1246.69 771.12 1244.72 776.67 1244.8 782.69C1244.98 797.02 1256.97 808.67 1271.3 808.46C1285.32 808.25 1296.66 796.98 1296.99 782.99C1297.33 769.03 1286.42 757.12 1272.49 756.3Z" fill="#21252B"/>
<path d="M1247.04 772.59C1247.04 772.59 1255.9 768.48 1252.96 759.06C1250.02 749.65 1238.74 753.98 1242.03 763.27L1246.09 773.14L1247.04 772.59Z" fill="#FC9D9D"/>
<path opacity="0.3" d="M1247.82 756.08C1246.56 755.97 1245.57 756.23 1244.86 756.85C1244.16 757.47 1243.78 758.41 1243.73 759.64C1243.68 760.88 1243.95 762.23 1244.61 763.45L1245.08 764.38C1245.41 765.08 1246.69 764.62 1246.27 763.83C1245.78 762.81 1245.78 762.81 1245.78 762.81C1245.6 762.54 1244.94 760.88 1245 759.68C1245.04 758.81 1245.27 758.17 1245.7 757.79C1246.14 757.4 1246.81 757.25 1247.71 757.33C1248.06 757.36 1248.36 757.11 1248.39 756.76C1248.42 756.42 1248.17 756.11 1247.82 756.08Z" fill="black"/>
<path opacity="0.15" d="M1208.34 785.54C1208.36 785.53 1210.42 784.73 1211.56 782.51C1211.75 782.14 1212.18 781.97 1212.57 782.11C1213.02 782.28 1213.23 782.81 1213.01 783.24C1211.8 785.61 1209.79 786.67 1209.12 786.97L1208.34 785.54Z" fill="black"/>
<path opacity="0.15" d="M1219.47 820.95L1215.89 829.21C1214.01 833.25 1212.8 836.6 1209.55 838.96L1216.2 834.7C1217.62 833.79 1218.7 832.42 1219.27 830.83L1224.44 812.52L1225.05 810.34C1222.87 813.49 1221.17 817.21 1219.47 820.95Z" fill="black"/>
<path d="M1208.25 770.41C1209.42 770.41 1210.37 769.461 1210.37 768.29C1210.37 767.119 1209.42 766.17 1208.25 766.17C1207.08 766.17 1206.13 767.119 1206.13 768.29C1206.13 769.461 1207.08 770.41 1208.25 770.41Z" fill="#21252B"/>
<path d="M1207.35 769.45C1207.61 769.45 1207.83 769.235 1207.83 768.97C1207.83 768.705 1207.61 768.49 1207.35 768.49C1207.08 768.49 1206.87 768.705 1206.87 768.97C1206.87 769.235 1207.08 769.45 1207.35 769.45Z" fill="white"/>
<path d="M1248 770.81C1249.07 770.81 1249.94 769.941 1249.94 768.87C1249.94 767.798 1249.07 766.93 1248 766.93C1246.93 766.93 1246.06 767.798 1246.06 768.87C1246.06 769.941 1246.93 770.81 1248 770.81Z" class="change-color-in-svg" fill="#4D61FC" style="fill: rgb(255, 104, 59);"/>
<path opacity="0.15" d="M1248.63 767.06C1248.95 767.41 1249.16 767.86 1249.16 768.37C1249.16 769.44 1248.29 770.31 1247.22 770.31C1247 770.31 1246.79 770.25 1246.59 770.18C1246.94 770.56 1247.44 770.81 1248 770.81C1249.07 770.81 1249.94 769.94 1249.94 768.87C1249.95 768.02 1249.39 767.32 1248.63 767.06Z" fill="black"/>
<path d="M1206.87 779.22C1206.55 779.22 1206.25 779.01 1206.15 778.68L1202.53 766.73C1202.41 766.33 1202.63 765.91 1203.03 765.79C1203.43 765.67 1203.85 765.89 1203.97 766.29L1207.59 778.24C1207.71 778.64 1207.49 779.06 1207.09 779.18C1207.02 779.21 1206.94 779.22 1206.87 779.22Z" fill="white"/>
<path d="M1205.55 773.38C1205.23 773.38 1204.94 773.18 1204.83 772.86C1204.7 772.46 1204.92 772.04 1205.31 771.91L1241.23 760.16C1241.63 760.03 1242.05 760.25 1242.18 760.64C1242.31 761.04 1242.09 761.46 1241.7 761.59L1205.78 773.34C1205.7 773.37 1205.62 773.38 1205.55 773.38Z" fill="white"/>
<path opacity="0.6" d="M1285.77 1024.62L1285.21 1021.11L1305.09 1020.27L1305.3 1023.82L1285.77 1024.62Z" fill="black"/>
<path d="M1281.16 878.4C1282.06 878.4 1282.79 877.67 1282.79 876.77C1282.79 875.869 1282.06 875.14 1281.16 875.14C1280.26 875.14 1279.53 875.869 1279.53 876.77C1279.53 877.67 1280.26 878.4 1281.16 878.4Z" fill="white"/>
<path d="M1225.05 986.94C1225.95 986.94 1226.68 986.21 1226.68 985.31C1226.68 984.409 1225.95 983.68 1225.05 983.68C1224.15 983.68 1223.42 984.409 1223.42 985.31C1223.42 986.21 1224.15 986.94 1225.05 986.94Z" fill="white"/>
<path d="M1225.05 955.48C1225.95 955.48 1226.68 954.75 1226.68 953.85C1226.68 952.95 1225.95 952.22 1225.05 952.22C1224.15 952.22 1223.42 952.95 1223.42 953.85C1223.42 954.75 1224.15 955.48 1225.05 955.48Z" fill="white"/>
<path d="M1204.93 940.39C1205.83 940.39 1206.56 939.66 1206.56 938.76C1206.56 937.86 1205.83 937.13 1204.93 937.13C1204.03 937.13 1203.3 937.86 1203.3 938.76C1203.3 939.66 1204.03 940.39 1204.93 940.39Z" fill="white"/>
<path d="M1185.87 922.04C1186.77 922.04 1187.5 921.31 1187.5 920.41C1187.5 919.51 1186.77 918.78 1185.87 918.78C1184.97 918.78 1184.24 919.51 1184.24 920.41C1184.24 921.31 1184.97 922.04 1185.87 922.04Z" fill="white"/>
<path d="M1276.27 936.72C1277.17 936.72 1277.9 935.99 1277.9 935.09C1277.9 934.19 1277.17 933.46 1276.27 933.46C1275.37 933.46 1274.64 934.19 1274.64 935.09C1274.64 935.99 1275.37 936.72 1276.27 936.72Z" fill="white"/>
<path d="M1258.76 905.79C1259.66 905.79 1260.39 905.06 1260.39 904.16C1260.39 903.26 1259.66 902.53 1258.76 902.53C1257.86 902.53 1257.13 903.26 1257.13 904.16C1257.13 905.06 1257.86 905.79 1258.76 905.79Z" fill="white"/>
<path d="M1301.3 1011.19C1302.2 1011.19 1302.93 1010.46 1302.93 1009.56C1302.93 1008.66 1302.2 1007.93 1301.3 1007.93C1300.4 1007.93 1299.67 1008.66 1299.67 1009.56C1299.67 1010.46 1300.4 1011.19 1301.3 1011.19Z" fill="white"/>
<path d="M1283.58 988.57C1284.48 988.57 1285.21 987.84 1285.21 986.94C1285.21 986.039 1284.48 985.31 1283.58 985.31C1282.68 985.31 1281.95 986.039 1281.95 986.94C1281.95 987.84 1282.68 988.57 1283.58 988.57Z" fill="white"/>
<path d="M1297.01 957.11C1297.91 957.11 1298.64 956.38 1298.64 955.48C1298.64 954.579 1297.91 953.85 1297.01 953.85C1296.11 953.85 1295.38 954.579 1295.38 955.48C1295.38 956.38 1296.11 957.11 1297.01 957.11Z" fill="white"/>
<path d="M1295.38 909.05C1296.28 909.05 1297.01 908.32 1297.01 907.42C1297.01 906.52 1296.28 905.79 1295.38 905.79C1294.48 905.79 1293.75 906.52 1293.75 907.42C1293.75 908.32 1294.48 909.05 1295.38 909.05Z" fill="white"/>
<path d="M1199.01 965.62C1199.91 965.62 1200.64 964.891 1200.64 963.99C1200.64 963.09 1199.91 962.36 1199.01 962.36C1198.11 962.36 1197.38 963.09 1197.38 963.99C1197.38 964.891 1198.11 965.62 1199.01 965.62Z" fill="white"/>
<path d="M1232.03 918.78C1232.93 918.78 1233.66 918.05 1233.66 917.15C1233.66 916.249 1232.93 915.52 1232.03 915.52C1231.13 915.52 1230.4 916.249 1230.4 917.15C1230.4 918.05 1231.13 918.78 1232.03 918.78Z" fill="white"/>
<path d="M1239.92 886.53C1240.82 886.53 1241.55 885.8 1241.55 884.9C1241.55 883.999 1240.82 883.27 1239.92 883.27C1239.02 883.27 1238.29 883.999 1238.29 884.9C1238.29 885.8 1239.02 886.53 1239.92 886.53Z" fill="white"/>
<path d="M1228.41 854.82C1229.31 854.82 1230.04 854.09 1230.04 853.19C1230.04 852.289 1229.31 851.56 1228.41 851.56C1227.51 851.56 1226.78 852.289 1226.78 853.19C1226.78 854.09 1227.51 854.82 1228.41 854.82Z" fill="white"/>
<path d="M1204.93 912.9C1205.83 912.9 1206.56 912.17 1206.56 911.27C1206.56 910.369 1205.83 909.64 1204.93 909.64C1204.03 909.64 1203.3 910.369 1203.3 911.27C1203.3 912.17 1204.03 912.9 1204.93 912.9Z" fill="white"/>
<path d="M1209.56 881.11C1210.46 881.11 1211.19 880.38 1211.19 879.48C1211.19 878.579 1210.46 877.85 1209.56 877.85C1208.66 877.85 1207.93 878.579 1207.93 879.48C1207.93 880.38 1208.66 881.11 1209.56 881.11Z" fill="white"/>
<path d="M1205.06 850.02C1205.96 850.02 1206.69 849.29 1206.69 848.39C1206.69 847.49 1205.96 846.76 1205.06 846.76C1204.16 846.76 1203.43 847.49 1203.43 848.39C1203.43 849.29 1204.16 850.02 1205.06 850.02Z" fill="white"/>
<path d="M1182.43 876.77C1183.33 876.77 1184.06 876.04 1184.06 875.14C1184.06 874.24 1183.33 873.51 1182.43 873.51C1181.53 873.51 1180.8 874.24 1180.8 875.14C1180.8 876.04 1181.53 876.77 1182.43 876.77Z" fill="white"/>
<path d="M1160.23 870.13C1161.13 870.13 1161.86 869.4 1161.86 868.5C1161.86 867.6 1161.13 866.87 1160.23 866.87C1159.33 866.87 1158.6 867.6 1158.6 868.5C1158.6 869.4 1159.33 870.13 1160.23 870.13Z" fill="white"/>
<path d="M1152.12 846.64C1153.02 846.64 1153.75 845.91 1153.75 845.01C1153.75 844.11 1153.02 843.38 1152.12 843.38C1151.22 843.38 1150.49 844.11 1150.49 845.01C1150.49 845.91 1151.22 846.64 1152.12 846.64Z" fill="white"/>
<path d="M1225.29 824.54C1226.19 824.54 1226.92 823.81 1226.92 822.91C1226.92 822.01 1226.19 821.28 1225.29 821.28C1224.39 821.28 1223.66 822.01 1223.66 822.91C1223.66 823.81 1224.39 824.54 1225.29 824.54Z" fill="white"/>
<path d="M1255.18 856.45C1256.08 856.45 1256.81 855.721 1256.81 854.82C1256.81 853.92 1256.08 853.19 1255.18 853.19C1254.28 853.19 1253.55 853.92 1253.55 854.82C1253.55 855.721 1254.28 856.45 1255.18 856.45Z" fill="white"/>
<path d="M1269.32 826.17C1270.22 826.17 1270.95 825.44 1270.95 824.54C1270.95 823.64 1270.22 822.91 1269.32 822.91C1268.42 822.91 1267.69 823.64 1267.69 824.54C1267.69 825.44 1268.42 826.17 1269.32 826.17Z" fill="white"/>
<path d="M1288.73 846.64C1289.63 846.64 1290.36 845.91 1290.36 845.01C1290.36 844.11 1289.63 843.38 1288.73 843.38C1287.83 843.38 1287.1 844.11 1287.1 845.01C1287.1 845.91 1287.83 846.64 1288.73 846.64Z" fill="white"/>
<path d="M1175.45 945.28C1176.35 945.28 1177.08 944.55 1177.08 943.65C1177.08 942.749 1176.35 942.02 1175.45 942.02C1174.55 942.02 1173.82 942.749 1173.82 943.65C1173.82 944.55 1174.55 945.28 1175.45 945.28Z" fill="white"/>
<path d="M1248.83 942.02C1249.73 942.02 1250.46 941.29 1250.46 940.39C1250.46 939.49 1249.73 938.76 1248.83 938.76C1247.93 938.76 1247.2 939.49 1247.2 940.39C1247.2 941.29 1247.93 942.02 1248.83 942.02Z" fill="white"/>
<path opacity="0.15" d="M1203.38 981.85C1210.15 985.76 1217.43 988.44 1221.97 989.91C1224.56 990.75 1227.37 989.59 1228.64 987.18L1269.32 921.72L1263.31 884.91C1263.01 883.09 1260.6 882.66 1259.68 884.25L1203.38 981.85Z" fill="black"/>
<path opacity="0.15" d="M825.709 438.7C825.819 437.07 825.879 435.43 825.879 433.77C825.879 393.06 792.879 360.06 752.169 360.06C749.149 360.06 746.169 360.25 743.239 360.6C779.789 364.96 808.139 396.04 808.139 433.77C808.139 435.43 808.079 437.07 807.969 438.7C827.129 446.57 840.629 465.41 840.629 487.41C840.629 516.48 817.059 540.05 787.989 540.05H805.739C834.809 540.05 858.379 516.48 858.379 487.41C858.369 465.41 844.869 446.57 825.709 438.7Z" fill="black"/>
</svg>