<svg width="1920" height="1080" version="1.1" viewBox="0 0 1920 1080" xmlns="http://www.w3.org/2000/svg"><g transform="translate(0,312)" fill="#729fcf"><path d="m305.5 693.73c-99.017-25.188-202.19-75.049-305.5-41.704v115.98h1920c-37.514-74.811-134.49-24.105-200.77-40.46-84.436-20.835-130.09-33.708-250.38-73.352s-312.28 68.507-473.59 44.007c-128.39-14.489-256.42-53.51-382.06-61.546s-228.56 84.283-307.7 57.076z" opacity=".2" stop-color="#000000"/><path transform="translate(0,-312)" d="m996.53 885.92c-44.766-.5182-77.565 48.484-111.6 74.246-43.446 32.889-127 79.515-135.48 78.139-10.692 5.5466-107.93-25.053-140.82-21.952-33.315 3.1404-94.461 30.54-135.38 63.648h878.37c-58.658-36.541-123.76-65.7-182.5-101.04-51.734-31.13-96.935-73.615-155.53-90.469-5.8829-1.6921-11.561-2.5028-17.059-2.5664z" opacity=".3" stop-color="#000000"/><path d="m1713.8 329.44v86.227h-13.196v76.886h-23.871v-44.527h-154.15v44.527h-44.522v276.07h44.522v.615h154.15v-.615h243.22v-439.18z" opacity=".1" stop-color="#000000"/></g></svg>
