<svg id="SVGRoot" width="64" height="64" version="1.1" viewBox="0 0 64 64" xmlns="http://www.w3.org/2000/svg" xmlns:xlink="http://www.w3.org/1999/xlink"><defs><linearGradient id="linearGradient848" x1="4" x2="61" y1="35" y2="35" gradientUnits="userSpaceOnUse"><stop stop-color="#204a87" offset="0"/><stop stop-color="#3465a4" offset="1"/></linearGradient></defs><g transform="translate(0,312)"><path transform="translate(0,-312)" d="m23 0-18 64h37l18-64h-37zm9.7715 18.617c7.8612 0 13.414 5.0134 13.414 14.137v2.1992h-18.463v.23438c0 3.3897 2.0908 5.6426 5.4805 5.6426 2.3079 0 4.1117-.991 4.7969-2.8301l8.2207-1.2559c-1.0097 5.4451-5.9135 10.451-13.18 10.451-8.7086 0-14.01-5.3908-14.01-14.262 0-8.5824 5.3742-14.316 13.74-14.316zm.17969 6.3652c-2.9209 0-5.1023 2.091-5.2285 4.8496h10.26c-.03606-2.8308-2.1284-4.8496-5.0312-4.8496z" fill="url(#linearGradient848)" stop-color="#000000" stroke-width="4"/></g></svg>
