<svg version="1.1" viewBox="0 0 1931.8 599.83" xmlns="http://www.w3.org/2000/svg"><g transform="translate(5.2591 60.7)"><path d="m4.7409-50.7h1911.8v579.83h-1911.8z" fill="#fff" stop-color="#000000" stroke-width="10.778"/><g fill="#dfe9e4"><path d="m196.3 84.057a72.032 72.032 0 0 1-72.032 72.032 72.032 72.032 0 0 1-72.032-72.032 72.032 72.032 0 0 1 72.032-72.032 72.032 72.032 0 0 1 72.032 72.032z" stop-color="#000000" stroke-width="9.6354"/><path d="m273.72 33.461h275.52v37.688h-275.52z" stop-color="#000000" stroke-width="6.5972"/><path d="m273.72 91.396h798.59v30.956h-798.59z" stop-color="#000000" stroke-width="5.658"/><path d="m64.565 255.16h1781v35.845h-1781z" stop-color="#000000" stroke-width="10.13"/><path d="m64.565 255.16h1781v35.845h-1781z" stop-color="#000000" stroke-width="10.13"/><path d="m64.565 315.46h1751.9v35.258h-1751.9z" stop-color="#000000" stroke-width="9.9641"/><path d="m64.565 375.16h1781v35.845h-1781z" stop-color="#000000" stroke-width="10.13"/></g></g></svg>
